<?xml version="1.0" encoding="UTF-8" standalone="no"?>
<!DOCTYPE svg PUBLIC "-//W3C//DTD SVG 1.1//EN" "http://www.w3.org/Graphics/SVG/1.1/DTD/svg11.dtd">
<svg xmlns="http://www.w3.org/2000/svg" version="1.1" viewBox="0.00 0.00 1698.00 1235.00" width="50">
<path fill="#eccb1f" d="
  M 1014.33 0.00
  L 1027.56 0.00
  C 1032.53 1.78 1036.41 3.14 1040.59 6.54
  C 1042.33 7.96 1044.44 9.11 1045.81 11.17
  C 1048.95 15.87 1053.99 20.05 1058.00 24.06
  C 1058.85 24.92 1060.14 25.28 1060.79 25.95
  Q 1066.97 32.21 1073.23 38.40
  A 1.51 1.50 71.0 0 0 1074.06 38.81
  Q 1074.51 38.88 1074.69 39.05
  Q 1081.39 45.77 1088.10 52.47
  A 1.95 1.91 74.2 0 0 1088.94 52.95
  Q 1089.17 53.01 1089.39 53.07
  Q 1089.60 53.14 1089.76 53.30
  Q 1096.44 59.97 1103.26 66.49
  C 1103.96 67.16 1104.57 67.25 1105.20 67.88
  Q 1111.79 74.51 1118.40 81.10
  Q 1118.60 81.29 1119.01 81.32
  A 1.28 1.26 69.6 0 1 1119.80 81.69
  L 1133.41 95.26
  A 1.21 1.20 73.0 0 0 1134.06 95.61
  Q 1134.33 95.66 1134.57 95.73
  Q 1134.74 95.78 1134.87 95.91
  Q 1141.09 102.05 1147.23 108.28
  C 1147.94 109.01 1149.17 109.32 1150.02 110.18
  Q 1156.40 116.57 1162.93 122.80
  C 1163.53 123.37 1164.17 123.55 1164.68 124.06
  Q 1171.30 130.63 1177.89 137.25
  Q 1178.24 137.60 1178.73 137.72
  Q 1179.35 137.87 1179.61 138.13
  Q 1186.16 144.65 1192.69 151.19
  C 1193.47 151.97 1194.34 152.00 1195.08 152.74
  Q 1201.62 159.29 1208.33 165.67
  C 1208.99 166.30 1209.51 166.33 1210.10 166.93
  Q 1219.23 176.20 1222.47 179.28
  Q 1222.60 179.39 1222.84 179.46
  Q 1223.26 179.57 1223.59 179.87
  L 1280.27 233.47
  Q 1280.81 233.98 1281.26 234.10
  Q 1281.54 234.18 1281.68 234.32
  Q 1287.94 240.58 1294.19 246.84
  C 1294.75 247.40 1295.21 247.37 1295.84 247.97
  Q 1302.23 254.06 1308.61 260.15
  C 1309.45 260.95 1310.34 261.32 1311.09 262.06
  Q 1317.28 268.24 1323.47 274.43
  C 1324.21 275.18 1325.13 275.24 1325.85 275.96
  Q 1332.07 282.20 1338.47 288.26
  C 1339.08 288.84 1339.53 288.82 1340.07 289.35
  Q 1346.19 295.43 1352.40 301.40
  C 1353.04 302.02 1353.59 302.04 1354.15 302.60
  Q 1360.42 308.84 1366.65 315.10
  Q 1366.84 315.29 1367.26 315.42
  Q 1367.70 315.56 1368.04 315.88
  L 1395.58 342.14
  A 0.82 0.70 -12.6 0 0 1395.92 342.32
  Q 1396.13 342.38 1396.34 342.44
  Q 1396.53 342.49 1396.67 342.63
  Q 1403.12 349.03 1409.52 355.47
  Q 1409.68 355.63 1410.24 355.76
  A 0.68 0.59 -13.6 0 1 1410.53 355.91
  L 1451.46 394.58
  Q 1451.83 394.93 1452.31 395.11
  Q 1452.58 395.21 1452.69 395.31
  Q 1459.04 401.64 1465.38 407.97
  C 1466.00 408.59 1466.80 408.56 1467.35 409.11
  Q 1473.23 415.01 1479.14 420.87
  C 1479.45 421.18 1479.71 421.25 1480.12 421.30
  Q 1480.44 421.35 1480.67 421.58
  L 1493.16 434.07
  A 1.66 1.60 -15.8 0 0 1493.98 434.51
  Q 1494.18 434.55 1494.37 434.60
  Q 1494.54 434.66 1494.68 434.79
  Q 1500.73 440.78 1506.72 446.83
  C 1507.73 447.85 1508.92 448.10 1509.92 449.11
  Q 1519.01 458.33 1521.41 460.60
  Q 1521.57 460.75 1522.06 460.85
  Q 1522.55 460.95 1522.90 461.30
  Q 1529.00 467.35 1535.03 473.46
  C 1535.62 474.05 1536.45 474.00 1537.17 474.73
  Q 1542.61 480.21 1548.07 485.65
  C 1548.98 486.55 1550.00 486.70 1550.86 487.57
  Q 1556.50 493.27 1562.20 498.89
  Q 1562.49 499.18 1562.90 499.25
  L 1563.24 499.32
  Q 1563.46 499.36 1563.62 499.52
  Q 1569.93 505.86 1576.30 512.13
  C 1576.77 512.60 1577.44 512.53 1577.90 512.99
  Q 1583.63 518.68 1589.34 524.42
  C 1590.06 525.14 1591.38 525.54 1592.31 526.47
  Q 1597.74 531.95 1603.19 537.39
  A 1.54 1.53 -17.7 0 0 1604.03 537.82
  Q 1604.55 537.91 1604.69 538.06
  Q 1610.58 543.97 1616.50 549.85
  C 1617.07 550.41 1617.79 550.33 1618.31 550.85
  Q 1624.60 557.11 1631.02 563.23
  C 1631.80 563.97 1632.57 564.27 1633.27 564.96
  Q 1638.83 570.54 1644.41 576.09
  Q 1644.61 576.29 1644.98 576.33
  A 1.44 1.38 -18.0 0 1 1645.81 576.73
  Q 1651.46 582.28 1657.02 587.91
  C 1657.94 588.85 1659.04 589.01 1659.88 589.86
  Q 1664.00 594.05 1673.80 603.45
  Q 1676.30 605.85 1677.97 609.29
  C 1679.11 611.63 1678.72 614.12 1678.71 616.59
  A 5.07 5.07 0.0 0 1 1677.25 620.15
  Q 1673.72 623.72 1669.69 627.69
  C 1669.06 628.31 1668.08 628.45 1667.29 629.35
  Q 1666.15 630.64 1664.55 631.30
  Q 1664.08 631.49 1663.77 631.89
  C 1661.67 634.57 1658.64 636.28 1656.60 638.30
  C 1648.77 646.07 1640.62 653.40 1632.86 661.24
  C 1632.37 661.73 1631.86 661.75 1631.29 662.29
  Q 1625.05 668.15 1619.00 674.22
  Q 1618.75 674.47 1618.15 674.65
  A 1.83 1.72 -73.3 0 0 1617.39 675.09
  Q 1611.62 680.69 1605.83 686.28
  C 1605.08 687.01 1604.38 687.21 1603.70 687.89
  Q 1598.42 693.13 1593.18 698.41
  Q 1592.68 698.92 1591.81 699.53
  C 1587.14 702.80 1582.93 707.84 1578.87 711.87
  Q 1578.69 712.05 1578.10 712.21
  A 0.63 0.56 11.7 0 0 1577.89 712.33
  L 1510.49 775.73
  Q 1510.20 776.01 1509.81 776.14
  Q 1509.41 776.27 1509.22 776.46
  Q 1503.38 782.36 1497.34 788.05
  C 1496.67 788.68 1496.14 788.70 1495.54 789.31
  Q 1489.60 795.29 1483.63 801.23
  C 1482.85 802.01 1481.91 802.09 1481.19 802.82
  Q 1475.48 808.55 1469.76 814.27
  C 1469.32 814.71 1468.46 814.74 1467.82 815.37
  Q 1462.29 820.82 1456.84 826.34
  C 1456.10 827.08 1455.00 827.34 1454.22 828.11
  Q 1448.22 834.12 1442.21 840.12
  C 1441.57 840.75 1440.69 840.84 1440.14 841.38
  Q 1434.60 846.91 1429.08 852.44
  C 1428.46 853.06 1427.80 852.91 1427.24 853.46
  Q 1421.43 859.20 1415.68 864.99
  C 1415.06 865.62 1414.28 865.88 1413.57 866.57
  Q 1407.20 872.67 1400.91 878.87
  Q 1400.58 879.19 1400.13 879.29
  Q 1399.59 879.41 1399.37 879.62
  Q 1393.56 885.45 1387.75 891.27
  C 1387.31 891.71 1386.48 891.76 1385.85 892.38
  Q 1379.89 898.28 1373.79 904.02
  C 1373.22 904.56 1372.69 904.65 1372.20 905.14
  Q 1366.08 911.20 1360.01 917.31
  C 1359.50 917.82 1358.97 917.85 1358.38 918.41
  Q 1352.16 924.31 1346.11 930.38
  C 1345.45 931.04 1344.69 930.99 1344.10 931.57
  Q 1338.18 937.42 1332.16 943.17
  C 1331.38 943.92 1330.58 944.21 1329.89 944.90
  Q 1323.95 950.91 1317.96 956.85
  Q 1317.63 957.17 1317.17 957.28
  Q 1316.56 957.42 1316.36 957.61
  Q 1313.81 960.03 1305.26 968.75
  C 1304.35 969.68 1303.35 969.75 1302.46 970.65
  Q 1296.42 976.72 1290.36 982.74
  C 1289.79 983.31 1289.08 983.22 1288.54 983.75
  Q 1282.63 989.62 1276.62 995.37
  C 1275.97 995.99 1275.43 996.00 1274.86 996.57
  Q 1268.97 1002.46 1263.10 1008.35
  C 1262.44 1009.01 1261.42 1009.22 1260.71 1009.93
  Q 1254.92 1015.67 1249.17 1021.46
  C 1248.15 1022.50 1246.97 1022.80 1245.99 1023.78
  Q 1240.56 1029.26 1235.08 1034.70
  C 1234.42 1035.35 1233.85 1035.09 1233.27 1035.66
  Q 1226.90 1041.97 1220.61 1048.36
  Q 1220.50 1048.47 1220.15 1048.58
  Q 1219.72 1048.71 1219.39 1049.02
  L 1164.12 1101.13
  Q 1163.76 1101.48 1163.30 1101.65
  Q 1163.00 1101.77 1162.88 1101.88
  Q 1156.82 1107.94 1150.78 1114.01
  C 1149.85 1114.93 1148.81 1115.04 1147.96 1115.90
  Q 1141.91 1122.04 1135.79 1128.08
  Q 1135.47 1128.40 1135.02 1128.46
  Q 1134.84 1128.48 1134.68 1128.52
  Q 1134.53 1128.55 1134.42 1128.67
  Q 1128.30 1134.75 1122.23 1140.87
  C 1121.41 1141.70 1120.59 1141.65 1119.83 1142.42
  Q 1113.93 1148.32 1107.87 1154.05
  C 1107.32 1154.57 1106.88 1154.53 1106.41 1154.99
  Q 1100.22 1161.14 1094.06 1167.32
  C 1093.38 1168.00 1092.63 1167.93 1092.02 1168.54
  Q 1086.10 1174.48 1080.16 1180.40
  C 1079.55 1181.01 1078.73 1181.02 1078.25 1181.50
  Q 1071.50 1188.25 1064.74 1195.00
  Q 1064.25 1195.50 1060.95 1197.98
  C 1058.86 1199.55 1057.75 1201.96 1056.18 1203.54
  Q 1048.17 1211.62 1040.09 1219.64
  Q 1036.99 1222.71 1033.34 1225.06
  C 1024.84 1230.52 1017.84 1236.98 1008.08 1228.14
  C 1001.21 1221.91 996.76 1213.86 990.32 1207.24
  Q 987.16 1204.00 983.92 1200.84
  Q 983.72 1200.65 983.08 1200.49
  Q 982.58 1200.35 982.21 1199.98
  L 969.86 1187.62
  Q 969.49 1187.25 968.98 1187.15
  Q 968.44 1187.05 968.21 1186.81
  Q 962.27 1180.88 956.34 1174.94
  C 955.44 1174.03 954.44 1173.86 953.58 1173.00
  Q 947.55 1166.99 941.54 1160.95
  C 940.87 1160.28 940.09 1160.36 939.49 1159.75
  Q 933.38 1153.66 927.29 1147.56
  Q 926.95 1147.23 926.31 1146.88
  Q 925.77 1146.58 925.34 1146.16
  Q 919.08 1140.15 912.93 1134.04
  Q 912.57 1133.69 912.09 1133.56
  Q 911.86 1133.50 911.64 1133.42
  Q 911.43 1133.35 911.26 1133.18
  Q 904.93 1126.92 898.52 1120.74
  C 897.82 1120.06 897.14 1119.93 896.53 1119.32
  Q 890.12 1112.94 883.74 1106.54
  C 883.07 1105.87 882.17 1105.80 881.54 1105.16
  Q 875.34 1098.97 869.15 1092.78
  A 1.89 1.88 74.7 0 0 868.30 1092.29
  Q 868.08 1092.23 867.86 1092.17
  Q 867.65 1092.11 867.49 1091.96
  Q 861.11 1085.59 854.75 1079.21
  Q 854.55 1079.01 853.79 1078.82
  A 1.67 1.65 74.0 0 1 853.01 1078.38
  Q 843.94 1069.13 840.82 1066.17
  C 840.37 1065.73 839.56 1065.55 838.96 1065.00
  Q 833.76 1060.32 829.39 1054.87
  C 828.09 1053.25 827.23 1051.08 825.85 1049.28
  Q 825.52 1048.84 825.53 1048.29
  Q 825.54 1047.60 825.10 1047.07
  Q 824.72 1046.62 824.72 1046.03
  L 824.72 1040.18
  A 4.78 4.78 0.0 0 1 826.12 1036.80
  Q 828.95 1033.98 832.39 1030.94
  C 836.51 1027.30 840.44 1023.48 844.43 1019.70
  C 844.96 1019.19 845.38 1019.23 845.83 1018.78
  Q 851.41 1013.25 856.94 1007.68
  C 857.54 1007.07 858.62 1006.82 859.37 1006.08
  Q 864.95 1000.55 870.47 994.96
  C 871.20 994.22 872.49 993.84 873.40 992.92
  Q 878.39 987.89 883.43 982.92
  C 883.78 982.57 884.62 982.50 885.13 981.99
  Q 890.75 976.41 896.34 970.80
  C 897.18 969.95 898.14 969.87 898.94 969.06
  Q 904.57 963.39 910.24 957.76
  C 910.65 957.35 911.47 957.34 912.01 956.80
  Q 917.55 951.33 923.04 945.81
  Q 923.24 945.60 923.69 945.52
  A 0.60 0.54 16.1 0 0 923.98 945.38
  L 963.74 907.90
  Q 963.85 907.80 963.99 907.78
  Q 964.12 907.76 964.25 907.74
  A 0.71 0.68 16.8 0 0 964.58 907.57
  C 968.40 903.79 972.46 898.84 976.89 895.87
  Q 977.77 895.27 978.28 894.76
  Q 983.24 889.74 988.26 884.78
  C 988.64 884.40 989.50 884.32 990.02 883.80
  Q 995.45 878.43 1000.85 873.03
  Q 1001.20 872.67 1001.68 872.54
  Q 1001.90 872.48 1002.10 872.41
  Q 1002.31 872.35 1002.47 872.19
  Q 1007.43 867.29 1012.33 862.33
  C 1013.40 861.24 1014.65 860.90 1015.69 859.86
  Q 1020.90 854.60 1026.31 849.57
  C 1027.01 848.92 1027.62 848.78 1028.24 848.16
  Q 1033.38 842.96 1038.56 837.81
  C 1039.05 837.33 1039.89 837.29 1040.47 836.71
  Q 1045.75 831.43 1051.03 826.17
  C 1051.61 825.60 1052.28 825.69 1052.82 825.16
  Q 1058.71 819.40 1064.64 813.70
  C 1065.34 813.04 1066.04 812.85 1066.63 812.26
  Q 1071.92 806.98 1077.34 801.84
  C 1077.99 801.22 1078.55 801.16 1079.13 800.59
  Q 1084.38 795.32 1089.65 790.08
  C 1090.25 789.48 1090.97 789.56 1091.49 789.04
  C 1095.43 785.16 1099.25 780.76 1103.69 777.48
  C 1105.24 776.32 1106.50 774.82 1108.01 773.77
  Q 1118.77 766.32 1128.78 760.81
  C 1134.94 757.42 1130.22 750.49 1126.38 747.89
  C 1124.21 746.42 1119.43 745.18 1116.65 745.07
  C 1112.76 744.91 1108.79 744.19 1105.11 744.19
  Q 871.96 744.18 638.80 744.19
  C 637.46 744.19 636.44 744.99 635.21 744.99
  Q 553.48 745.02 471.75 745.00
  C 466.37 745.00 460.87 744.19 456.41 744.19
  Q 243.30 744.18 30.19 744.19
  Q 29.78 744.19 29.51 743.86
  Q 29.42 743.74 29.31 743.64
  Q 28.97 743.34 28.52 743.33
  Q 23.02 743.24 17.53 743.31
  C 15.30 743.34 13.83 742.30 11.92 741.38
  Q 11.46 741.16 11.24 740.70
  C 10.42 738.95 9.51 737.61 9.21 735.67
  Q 8.31 729.75 8.32 723.75
  Q 8.50 616.87 8.52 510.00
  Q 8.52 506.84 8.57 503.68
  C 8.60 501.57 9.31 499.33 9.25 496.98
  A 1.38 1.37 -28.3 0 1 9.50 496.16
  C 10.06 495.35 10.12 494.41 10.41 493.66
  Q 13.12 486.85 18.50 481.95
  Q 18.87 481.62 19.37 481.62
  Q 523.93 481.61 1028.50 481.59
  C 1031.76 481.59 1035.21 482.25 1038.17 482.28
  Q 1061.24 482.49 1084.31 482.63
  C 1085.78 482.64 1087.18 483.24 1088.63 483.24
  Q 1101.33 483.27 1114.03 483.25
  A 1.07 1.06 70.6 0 1 1114.86 483.65
  Q 1115.08 483.93 1115.38 484.01
  Q 1115.97 484.17 1116.46 483.81
  Q 1117.75 482.87 1119.47 483.31
  A 1.11 1.09 -50.1 0 0 1120.19 483.24
  Q 1122.80 482.04 1124.67 479.87
  Q 1125.00 479.48 1125.00 478.98
  L 1125.02 475.75
  Q 1125.02 475.21 1124.64 474.84
  Q 1122.23 472.52 1119.88 470.15
  Q 1119.60 469.87 1119.23 469.77
  Q 1119.03 469.72 1118.84 469.67
  Q 1118.46 469.58 1118.19 469.30
  Q 1114.83 465.92 1111.47 462.56
  Q 1111.31 462.40 1110.80 462.31
  A 1.70 1.61 -15.6 0 1 1109.95 461.86
  Q 1095.37 447.28 1080.80 432.70
  C 1080.20 432.10 1079.25 432.05 1078.51 431.31
  Q 1073.08 425.82 1067.60 420.40
  Q 1067.40 420.21 1066.92 420.12
  Q 1066.44 420.03 1066.09 419.68
  Q 1060.69 414.32 1055.32 408.92
  Q 1055.13 408.73 1054.56 408.60
  A 1.77 1.66 -14.8 0 1 1053.71 408.14
  L 1042.91 397.35
  Q 1042.55 396.99 1042.06 396.86
  C 1041.70 396.76 1041.47 396.74 1041.19 396.46
  Q 1035.76 391.07 1030.37 385.63
  C 1029.79 385.04 1028.69 384.80 1027.94 384.06
  Q 1022.42 378.56 1016.94 373.03
  Q 1016.59 372.68 1016.11 372.56
  Q 1015.87 372.51 1015.64 372.43
  Q 1015.43 372.35 1015.26 372.19
  Q 1009.49 366.47 1003.79 360.70
  C 1003.10 360.00 1001.76 359.60 1000.85 358.68
  Q 995.00 352.79 989.12 346.94
  A 1.92 1.88 -13.3 0 0 988.34 346.47
  L 987.97 346.36
  Q 987.67 346.27 987.44 346.05
  Q 981.73 340.39 976.06 334.67
  C 975.37 333.98 974.66 334.10 974.02 333.48
  Q 968.16 327.67 962.35 321.81
  C 961.77 321.21 961.07 321.36 960.50 320.80
  Q 953.95 314.29 947.44 307.74
  C 946.76 307.06 945.74 306.92 945.26 306.44
  Q 938.63 299.72 931.77 293.24
  C 931.11 292.62 930.55 292.58 929.97 291.99
  Q 923.46 285.42 916.90 278.91
  Q 916.62 278.62 916.25 278.52
  Q 916.05 278.46 915.85 278.41
  Q 915.47 278.31 915.19 278.03
  Q 908.55 271.38 901.90 264.74
  C 901.27 264.11 900.67 264.31 900.09 263.73
  Q 892.96 256.60 885.82 249.48
  C 885.48 249.14 885.19 249.07 884.74 248.96
  Q 884.36 248.87 884.07 248.59
  Q 876.88 241.39 869.70 234.18
  C 868.73 233.21 867.62 232.99 866.69 232.05
  Q 859.73 225.06 852.76 218.09
  C 851.97 217.31 851.12 217.30 850.37 216.55
  C 845.05 211.18 839.85 205.80 834.16 200.82
  C 829.69 196.90 823.98 191.07 823.88 186.69
  C 823.80 183.36 823.40 180.45 824.91 177.45
  C 826.85 173.60 829.64 170.63 832.37 167.37
  C 833.77 165.69 835.72 164.71 837.07 163.37
  Q 842.97 157.49 848.87 151.60
  C 849.54 150.93 850.32 151.03 850.92 150.42
  Q 857.08 144.20 863.44 138.20
  C 863.99 137.68 864.54 137.55 865.01 137.08
  Q 871.61 130.55 878.16 123.97
  Q 878.51 123.62 879.00 123.49
  Q 879.65 123.32 879.86 123.11
  Q 886.32 116.70 892.72 110.24
  C 893.64 109.32 894.68 109.18 895.52 108.34
  Q 901.52 102.31 907.54 96.29
  C 908.18 95.66 909.08 95.59 909.81 94.85
  Q 915.74 88.89 921.70 82.97
  C 922.47 82.20 923.45 82.09 924.14 81.39
  Q 929.61 75.82 935.18 70.34
  C 935.73 69.80 936.49 69.83 936.99 69.33
  Q 943.23 63.15 949.42 56.91
  C 950.05 56.28 951.20 55.96 952.01 55.15
  Q 958.04 49.11 964.09 43.09
  Q 964.31 42.86 964.89 42.74
  Q 965.34 42.65 965.66 42.33
  Q 981.67 26.37 997.61 10.36
  Q 1004.03 3.92 1014.33 0.00
  Z"
/>
</svg>
