<?xml version="1.0" encoding="UTF-8" standalone="no"?>
<!DOCTYPE svg PUBLIC "-//W3C//DTD SVG 1.1//EN" "http://www.w3.org/Graphics/SVG/1.1/DTD/svg11.dtd">
<svg xmlns="http://www.w3.org/2000/svg" version="1.1" viewBox="0.00 0.00 1698.00 1235.00" width="50">
<path fill="#eccb1f" d="
  M 666.61 0.00
  L 671.75 0.00
  Q 672.69 0.75 674.07 1.26
  C 681.21 3.89 687.10 13.46 691.60 19.26
  Q 692.77 20.76 697.45 25.88
  Q 698.30 26.81 703.15 31.58
  C 703.49 31.91 703.77 31.99 704.21 32.10
  A 1.31 1.30 74.7 0 1 704.80 32.44
  L 717.05 44.68
  A 2.02 2.01 -14.9 0 0 717.95 45.20
  Q 718.17 45.25 718.37 45.33
  Q 718.56 45.40 718.72 45.56
  Q 725.17 51.98 731.60 58.40
  C 732.02 58.81 732.78 58.75 733.38 59.34
  Q 739.53 65.46 745.64 71.61
  C 746.22 72.19 747.25 72.35 747.94 73.04
  Q 754.04 79.19 760.20 85.28
  Q 760.55 85.64 761.04 85.73
  Q 761.24 85.77 761.43 85.83
  Q 761.59 85.88 761.72 86.01
  Q 768.03 92.24 774.26 98.55
  Q 774.50 98.80 775.17 98.96
  Q 775.63 99.07 775.96 99.40
  Q 782.26 105.67 788.54 111.97
  C 788.99 112.42 789.84 112.47 790.44 113.07
  Q 797.02 119.61 803.72 126.02
  C 804.50 126.77 805.31 127.09 806.01 127.78
  Q 812.02 133.76 818.16 139.58
  C 818.92 140.30 819.57 140.46 820.26 141.15
  Q 826.18 147.14 832.16 153.07
  Q 832.44 153.35 832.79 153.46
  Q 833.01 153.53 833.23 153.59
  A 1.31 1.30 74.7 0 1 833.82 153.93
  L 842.90 163.00
  Q 844.88 164.97 847.07 166.71
  C 853.53 171.84 864.52 183.08 862.42 192.21
  Q 861.85 194.68 859.50 197.11
  C 858.18 198.48 855.45 201.75 853.74 202.23
  Q 853.51 202.30 853.33 202.47
  Q 848.40 207.39 843.47 212.33
  C 842.81 213.00 842.12 213.15 841.37 213.87
  Q 835.48 219.48 829.57 225.06
  Q 828.99 225.60 828.41 226.14
  Q 822.61 231.54 816.96 237.11
  C 816.22 237.84 815.36 238.28 814.54 239.04
  Q 809.04 244.18 803.59 249.37
  C 802.92 250.01 802.43 249.96 801.83 250.57
  Q 795.95 256.46 790.06 262.33
  Q 789.92 262.48 789.29 262.66
  A 1.70 1.69 14.6 0 0 788.50 263.12
  Q 782.74 268.86 776.99 274.60
  C 776.42 275.17 775.73 275.04 775.18 275.59
  Q 769.95 280.79 764.77 286.03
  C 763.97 286.85 762.63 287.24 761.63 288.24
  Q 756.18 293.74 750.54 299.02
  C 749.97 299.55 749.45 299.67 748.96 300.15
  Q 743.58 305.46 738.26 310.83
  C 737.48 311.63 736.55 312.03 735.66 312.88
  Q 729.81 318.49 724.02 324.17
  C 723.37 324.80 722.47 324.89 721.94 325.43
  Q 716.64 330.77 711.15 335.90
  C 710.57 336.45 710.08 336.49 709.58 337.00
  Q 704.46 342.11 699.35 347.22
  C 698.55 348.03 697.72 348.02 696.95 348.79
  Q 691.72 354.03 686.50 359.27
  C 685.89 359.88 684.79 360.08 684.04 360.84
  Q 678.97 365.92 673.89 371.00
  C 673.23 371.67 672.64 371.44 672.04 372.02
  Q 666.52 377.51 661.03 383.04
  C 660.55 383.53 659.72 383.50 659.07 384.14
  Q 653.99 389.15 648.99 394.24
  C 648.29 394.95 647.05 395.29 646.20 396.15
  Q 641.12 401.25 636.03 406.33
  C 635.51 406.84 635.00 406.88 634.41 407.45
  Q 628.40 413.16 622.52 419.01
  Q 622.23 419.30 621.57 419.46
  Q 621.12 419.58 620.78 419.92
  Q 615.40 425.30 610.01 430.68
  C 609.66 431.03 609.38 431.13 608.93 431.24
  Q 608.54 431.34 608.26 431.62
  Q 603.32 436.49 598.47 441.44
  C 597.22 442.71 595.69 443.09 594.58 444.32
  C 584.08 455.95 572.13 463.79 558.62 471.46
  C 557.43 472.14 556.68 473.23 555.64 474.14
  Q 555.25 474.47 555.28 474.98
  C 555.95 487.24 568.35 487.04 577.07 487.96
  Q 580.14 488.29 582.94 488.29
  Q 812.97 488.31 1043.00 488.29
  C 1047.49 488.29 1052.60 487.51 1057.00 487.51
  Q 1182.40 487.43 1214.25 487.51
  C 1220.29 487.52 1227.37 488.29 1233.58 488.29
  Q 1445.17 488.30 1656.75 488.29
  Q 1657.24 488.29 1657.85 488.81
  A 1.45 1.42 -24.5 0 0 1658.78 489.15
  L 1670.64 489.20
  Q 1671.10 489.20 1671.52 489.40
  L 1675.00 491.06
  Q 1675.42 491.26 1675.66 491.65
  C 1678.60 496.36 1678.72 502.09 1678.72 507.61
  Q 1678.74 616.68 1678.74 725.75
  C 1678.74 735.54 1675.84 744.11 1668.52 750.54
  A 1.33 1.33 0.0 0 1 1667.63 750.88
  Q 1165.02 750.88 662.43 750.88
  Q 658.37 750.88 654.82 750.63
  C 637.49 749.40 619.84 750.02 602.46 750.02
  C 601.15 750.02 600.48 749.25 599.28 749.24
  Q 586.13 749.22 572.99 749.23
  A 1.19 1.16 67.8 0 1 572.14 748.86
  Q 572.00 748.72 571.87 748.57
  Q 571.71 748.40 571.54 748.34
  Q 570.85 748.10 570.54 748.74
  Q 570.30 749.21 569.78 749.18
  Q 565.38 748.91 562.84 752.15
  C 561.70 753.60 561.94 754.95 562.06 756.69
  A 1.55 1.53 -70.0 0 0 562.52 757.69
  L 567.31 762.43
  Q 567.61 762.73 568.05 762.74
  Q 568.41 762.75 568.58 762.90
  Q 570.64 764.80 574.28 768.61
  C 575.43 769.81 576.73 770.17 577.86 771.30
  Q 592.19 785.64 606.69 799.81
  C 607.32 800.43 607.87 800.49 608.43 801.06
  Q 613.71 806.35 618.99 811.62
  C 619.63 812.26 620.23 812.07 620.79 812.62
  Q 625.66 817.41 630.44 822.28
  C 631.71 823.57 633.17 824.10 634.41 825.35
  Q 639.23 830.20 644.08 835.02
  C 644.75 835.69 645.31 835.43 645.91 836.03
  Q 651.39 841.52 656.89 846.99
  Q 657.25 847.35 657.75 847.47
  Q 658.31 847.62 658.48 847.78
  Q 661.47 850.59 669.86 859.16
  C 670.61 859.92 671.35 859.77 672.04 860.46
  Q 677.91 866.33 683.95 872.02
  Q 684.39 872.44 684.91 872.76
  Q 685.53 873.15 685.87 873.49
  Q 691.95 879.56 698.02 885.64
  A 1.59 1.52 71.8 0 0 698.79 886.05
  Q 699.46 886.19 699.63 886.37
  Q 705.53 892.35 711.50 898.25
  Q 711.64 898.38 712.01 898.48
  Q 712.49 898.61 712.86 898.96
  L 740.25 925.11
  Q 740.60 925.45 741.08 925.58
  Q 741.46 925.69 741.64 925.86
  Q 748.50 932.75 755.39 939.61
  Q 755.60 939.81 756.09 939.87
  A 1.06 1.06 0.0 0 1 756.69 940.17
  Q 763.53 946.89 770.43 953.54
  Q 770.76 953.86 771.19 954.03
  Q 771.65 954.20 771.99 954.55
  Q 778.47 961.11 785.02 967.59
  C 785.63 968.19 786.29 968.02 786.85 968.58
  Q 793.96 975.73 801.11 982.84
  Q 801.40 983.13 801.76 983.23
  Q 801.95 983.29 802.15 983.34
  Q 802.53 983.44 802.81 983.73
  Q 810.34 991.23 817.85 998.75
  C 818.36 999.25 818.84 999.27 819.42 999.82
  Q 826.96 1007.04 834.33 1014.42
  C 835.01 1015.10 836.18 1015.38 836.95 1016.16
  Q 842.38 1021.57 847.79 1026.99
  C 854.12 1033.32 863.57 1038.67 863.51 1048.90
  C 863.47 1055.60 858.00 1061.78 853.85 1066.09
  C 852.97 1067.00 851.47 1067.68 850.44 1068.70
  C 846.19 1072.90 841.67 1078.36 836.80 1081.73
  Q 836.04 1082.26 835.60 1082.69
  Q 829.84 1088.38 824.14 1094.13
  C 823.43 1094.85 822.64 1094.78 821.98 1095.44
  Q 815.52 1101.86 809.12 1108.32
  C 808.43 1109.01 807.70 1108.90 807.05 1109.55
  Q 800.46 1116.15 793.86 1122.74
  Q 793.50 1123.10 793.01 1123.21
  Q 792.46 1123.34 792.25 1123.54
  Q 789.70 1125.98 780.22 1135.59
  C 779.24 1136.58 778.10 1136.80 777.20 1137.70
  Q 771.13 1143.76 765.08 1149.84
  Q 764.78 1150.14 764.26 1150.26
  Q 763.71 1150.40 763.31 1150.80
  L 751.88 1162.20
  Q 751.47 1162.61 750.91 1162.74
  Q 750.39 1162.85 750.24 1163.00
  Q 743.92 1169.30 737.47 1175.46
  C 736.73 1176.16 735.98 1176.40 735.35 1177.03
  Q 729.36 1183.02 723.37 1189.01
  C 722.77 1189.62 722.12 1189.78 721.44 1190.45
  Q 704.42 1207.17 687.55 1224.03
  C 686.66 1224.91 685.54 1225.11 684.61 1226.07
  Q 684.26 1226.44 683.76 1226.53
  Q 682.85 1226.69 682.39 1227.46
  Q 682.13 1227.91 681.65 1228.11
  Q 680.98 1228.38 680.07 1229.06
  C 674.57 1233.21 667.91 1232.91 659.70 1232.36
  C 658.70 1232.29 658.04 1231.68 656.92 1231.67
  Q 656.43 1231.67 656.13 1231.29
  Q 655.62 1230.66 654.80 1230.77
  Q 654.28 1230.84 653.82 1230.59
  C 650.06 1228.52 647.10 1226.37 643.73 1223.76
  C 641.80 1222.28 640.87 1220.22 639.40 1218.76
  Q 633.98 1213.33 628.56 1207.91
  C 628.05 1207.40 627.53 1207.35 626.95 1206.79
  Q 620.67 1200.81 614.53 1194.69
  C 613.75 1193.91 612.66 1193.75 612.09 1193.17
  Q 605.57 1186.54 598.96 1180.01
  Q 598.60 1179.65 598.12 1179.53
  Q 597.89 1179.47 597.67 1179.40
  Q 597.45 1179.33 597.29 1179.17
  Q 590.59 1172.44 583.87 1165.73
  C 583.26 1165.12 582.67 1165.34 582.08 1164.75
  Q 575.48 1158.19 568.91 1151.58
  A 1.70 1.62 -14.5 0 0 568.08 1151.12
  C 567.73 1151.04 567.45 1151.00 567.18 1150.73
  Q 560.45 1144.01 553.61 1137.43
  C 552.99 1136.84 552.51 1136.87 551.97 1136.33
  Q 545.79 1130.18 539.65 1124.01
  Q 539.37 1123.73 538.86 1123.50
  Q 538.40 1123.29 538.04 1122.95
  Q 531.27 1116.48 524.67 1109.83
  C 524.03 1109.19 522.85 1108.89 522.05 1108.09
  Q 515.98 1102.06 509.95 1095.99
  C 509.14 1095.17 508.22 1094.78 507.32 1093.92
  Q 500.57 1087.44 493.95 1080.83
  Q 493.74 1080.62 493.31 1080.56
  A 1.52 1.47 -17.8 0 1 492.46 1080.14
  Q 485.59 1073.34 478.62 1066.64
  Q 478.39 1066.42 478.11 1066.27
  Q 477.70 1066.05 477.37 1065.73
  L 450.11 1039.73
  A 0.76 0.76 0.0 0 0 449.81 1039.56
  Q 449.57 1039.51 449.35 1039.44
  Q 449.14 1039.37 448.97 1039.20
  Q 443.05 1033.30 437.17 1027.37
  Q 436.64 1026.84 435.71 1026.20
  C 430.53 1022.69 425.56 1016.63 421.08 1012.17
  C 420.61 1011.70 419.73 1011.64 419.14 1011.04
  Q 412.91 1004.81 406.68 998.57
  Q 406.49 998.38 405.90 998.27
  Q 405.44 998.18 405.11 997.86
  Q 398.96 991.77 392.89 985.61
  Q 392.51 985.22 391.81 985.02
  Q 391.26 984.86 390.85 984.45
  L 378.45 972.04
  Q 378.08 971.67 377.56 971.58
  Q 377.08 971.50 376.92 971.34
  Q 370.34 964.76 363.78 958.17
  C 362.93 957.32 361.98 957.25 361.18 956.44
  Q 355.18 950.40 349.13 944.42
  C 348.57 943.86 348.00 943.76 347.36 943.15
  Q 341.04 937.13 334.87 930.95
  Q 334.53 930.61 334.05 930.53
  Q 333.82 930.49 333.62 930.41
  Q 333.45 930.35 333.30 930.20
  Q 327.02 923.97 320.81 917.69
  C 320.22 917.10 319.11 916.90 318.33 916.12
  Q 312.21 910.02 306.11 903.89
  Q 305.94 903.71 305.28 903.52
  Q 304.74 903.36 304.35 902.96
  L 291.84 890.46
  Q 291.48 890.10 290.99 889.98
  Q 290.34 889.82 290.13 889.62
  Q 284.03 883.46 277.90 877.34
  C 277.35 876.79 276.64 876.89 275.98 876.24
  Q 270.19 870.55 264.35 864.93
  C 263.50 864.10 262.65 863.79 261.88 863.02
  Q 255.85 856.97 249.66 851.09
  C 249.05 850.51 248.58 850.56 248.04 850.02
  Q 241.93 843.88 235.80 837.77
  Q 235.50 837.47 235.13 837.36
  Q 234.93 837.30 234.73 837.25
  Q 234.34 837.15 234.05 836.86
  Q 228.06 830.92 222.12 824.92
  C 221.35 824.14 220.26 823.91 219.68 823.33
  Q 213.95 817.57 208.19 811.83
  C 207.61 811.26 207.05 811.17 206.40 810.56
  Q 200.10 804.58 193.96 798.43
  C 193.32 797.80 192.67 798.01 192.11 797.45
  Q 185.90 791.23 179.69 785.01
  Q 179.34 784.66 178.86 784.54
  Q 178.63 784.48 178.41 784.41
  Q 178.19 784.35 178.02 784.18
  Q 172.20 778.32 166.34 772.49
  Q 166.02 772.17 165.38 771.82
  Q 164.84 771.53 164.42 771.11
  Q 154.30 761.23 151.62 758.63
  Q 151.40 758.42 151.01 758.39
  A 1.27 1.27 0.0 0 1 150.19 758.02
  Q 144.43 752.32 138.73 746.54
  C 138.18 745.98 137.01 745.68 136.26 744.92
  Q 130.64 739.28 125.00 733.66
  C 124.33 733.00 123.73 733.26 123.14 732.67
  Q 117.06 726.57 110.97 720.49
  C 110.37 719.88 109.63 719.98 109.20 719.55
  Q 103.25 713.62 97.17 707.83
  C 96.48 707.18 95.84 707.03 95.24 706.42
  Q 89.64 700.77 83.98 695.17
  C 83.38 694.58 82.70 694.71 82.15 694.16
  Q 76.36 688.43 70.63 682.62
  C 70.18 682.16 69.17 682.03 68.54 681.39
  Q 62.38 675.27 56.26 669.12
  C 55.86 668.72 55.53 668.67 55.02 668.53
  Q 54.74 668.45 54.54 668.25
  Q 48.85 662.56 43.19 656.85
  C 42.39 656.05 41.66 656.24 40.97 655.54
  Q 35.31 649.82 29.60 644.15
  C 28.94 643.50 28.18 643.56 27.56 642.93
  Q 20.22 635.51 12.68 628.29
  C 8.91 624.68 6.44 617.44 9.36 612.95
  Q 10.64 610.99 16.29 606.04
  C 21.85 601.16 27.86 596.67 33.10 591.59
  C 35.67 589.10 38.20 585.77 41.29 583.94
  Q 41.98 583.53 42.34 583.16
  Q 48.18 577.29 54.05 571.44
  C 54.83 570.66 55.73 570.62 56.47 569.88
  Q 62.13 564.21 67.80 558.56
  C 68.38 557.98 68.94 557.92 69.59 557.30
  Q 75.40 551.70 81.14 546.04
  C 81.66 545.52 82.13 545.52 82.72 544.96
  Q 88.87 539.12 94.90 533.14
  Q 95.14 532.90 95.71 532.75
  Q 96.26 532.61 96.66 532.21
  L 108.07 520.79
  Q 108.48 520.38 109.03 520.24
  Q 109.59 520.10 109.84 519.84
  Q 115.57 514.09 121.33 508.36
  C 122.05 507.64 122.86 507.66 123.53 506.99
  Q 129.12 501.41 134.70 495.83
  C 135.51 495.01 136.35 495.05 137.11 494.29
  Q 143.10 488.23 149.14 482.24
  Q 149.50 481.88 150.00 481.75
  Q 150.53 481.62 150.71 481.45
  C 154.79 477.42 159.27 471.94 163.98 468.80
  Q 164.92 468.17 165.46 467.62
  Q 170.82 462.16 176.44 456.97
  C 180.76 452.98 184.88 449.00 189.04 444.84
  C 189.80 444.09 190.91 443.84 191.51 443.23
  Q 197.74 436.96 204.00 430.72
  Q 204.24 430.48 204.90 430.30
  Q 205.35 430.18 205.69 429.85
  Q 211.40 424.23 217.02 418.52
  C 217.56 417.97 218.45 417.93 219.13 417.25
  Q 224.86 411.55 230.71 405.97
  C 231.50 405.23 232.31 404.92 233.00 404.23
  Q 238.93 398.27 244.89 392.35
  C 245.45 391.79 245.89 391.87 246.51 391.26
  Q 255.53 382.46 258.29 379.80
  Q 258.62 379.49 259.28 379.29
  A 2.15 2.07 -74.9 0 0 260.11 378.79
  Q 265.93 372.96 271.76 367.16
  C 272.32 366.60 273.03 366.71 273.58 366.16
  Q 279.81 359.91 286.07 353.70
  C 286.65 353.12 287.34 353.24 287.88 352.71
  Q 293.45 347.15 299.01 341.59
  C 299.59 341.01 300.25 340.79 300.91 340.16
  Q 306.74 334.63 312.44 328.97
  C 313.35 328.06 314.38 327.94 315.24 327.05
  Q 323.21 318.91 327.16 315.16
  C 327.66 314.69 328.48 314.57 329.04 314.02
  Q 335.11 308.04 341.11 301.99
  C 341.74 301.36 342.65 301.28 343.22 300.71
  Q 349.09 294.82 354.98 288.95
  Q 355.21 288.73 355.92 288.53
  Q 356.34 288.42 356.65 288.11
  L 369.00 275.79
  Q 369.34 275.45 369.78 275.27
  Q 370.22 275.09 370.55 274.78
  Q 376.62 268.99 382.70 263.20
  C 383.30 262.63 383.82 262.61 384.33 262.10
  Q 390.54 255.90 396.89 249.86
  C 397.67 249.12 398.48 248.83 399.16 248.15
  Q 404.65 242.62 410.17 237.13
  Q 410.44 236.87 410.74 236.79
  Q 410.92 236.74 411.10 236.71
  Q 411.44 236.65 411.68 236.41
  Q 418.03 230.14 424.45 223.96
  C 425.18 223.26 425.93 223.02 426.56 222.39
  Q 432.50 216.46 438.44 210.54
  C 439.03 209.95 439.68 209.78 440.35 209.14
  Q 446.19 203.60 451.89 197.92
  C 452.46 197.35 453.01 197.27 453.66 196.66
  Q 459.93 190.67 466.08 184.57
  C 466.61 184.05 467.23 183.89 467.84 183.31
  Q 474.31 177.17 480.61 170.85
  C 481.14 170.32 482.16 170.14 482.88 169.43
  Q 488.42 163.90 493.96 158.37
  C 494.61 157.72 495.23 157.93 495.79 157.36
  Q 501.95 151.18 508.14 145.01
  C 508.63 144.53 509.13 144.48 509.70 143.95
  Q 516.13 137.88 522.37 131.61
  C 522.97 131.00 524.18 130.68 524.99 129.87
  Q 530.91 123.94 536.83 118.02
  Q 537.11 117.74 537.63 117.48
  Q 538.07 117.25 538.43 116.92
  Q 544.83 110.83 551.07 104.57
  C 551.62 104.02 552.48 104.05 553.20 103.33
  Q 559.27 97.20 565.56 91.31
  C 566.19 90.72 566.77 90.58 567.31 90.04
  Q 573.13 84.23 578.93 78.42
  C 579.40 77.95 580.36 77.82 581.02 77.16
  Q 586.96 71.15 593.12 65.36
  C 593.87 64.65 594.69 64.27 595.36 63.61
  Q 601.30 57.75 607.16 51.83
  Q 607.50 51.49 607.97 51.35
  Q 608.74 51.12 609.04 50.81
  C 614.65 45.22 620.13 39.52 626.05 34.26
  C 627.90 32.62 629.45 30.41 630.97 28.91
  C 638.30 21.58 646.12 12.64 654.00 7.13
  Q 659.96 2.95 666.61 0.00
  Z"
/>
</svg>
